<svg xmlns="http://www.w3.org/2000/svg" width="30" height="31" viewBox="0 0 30 31" fill="none">
    <path d="M15 30.5C23.2843 30.5 30 23.7843 30 15.5C30 7.21573 23.2843 0.5 15 0.5C6.71573 0.5 0 7.21573 0 15.5C0 23.7843 6.71573 30.5 15 30.5Z" fill="#627EEA"/>
    <path d="M15.467 4.25V12.5656L22.4955 15.7062L15.467 4.25Z" fill="white" fill-opacity="0.602"/>
    <path d="M15.4669 4.25L8.4375 15.7062L15.4669 12.5656V4.25Z" fill="white"/>
    <path d="M15.467 21.095V26.7453L22.5002 17.015L15.467 21.095Z" fill="white" fill-opacity="0.602"/>
    <path d="M15.4669 26.7453V21.0941L8.4375 17.015L15.4669 26.7453Z" fill="white"/>
    <path d="M15.467 19.7873L22.4955 15.7063L15.467 12.5676V19.7873Z" fill="white" fill-opacity="0.2"/>
    <path d="M8.4375 15.7063L15.4669 19.7873V12.5676L8.4375 15.7063Z" fill="white" fill-opacity="0.602"/>
</svg>
