<svg xmlns="http://www.w3.org/2000/svg" width="30" height="31" viewBox="0 0 30 31" fill="none">
    <path d="M15 30.5C23.2843 30.5 30 23.7843 30 15.5C30 7.21573 23.2843 0.5 15 0.5C6.71573 0.5 0 7.21573 0 15.5C0 23.7843 6.71573 30.5 15 30.5Z" fill="#2775C9"/>
    <path d="M14.7656 26.2812C8.68125 26.2812 3.75 21.35 3.75 15.2656C3.75 9.18125 8.68125 4.25 14.7656 4.25C20.85 4.25 25.7812 9.18125 25.7812 15.2656C25.7812 18.1872 24.6207 20.989 22.5548 23.0548C20.489 25.1207 17.6872 26.2812 14.7656 26.2812ZM14.1094 11.1781C13.5067 11.208 12.9369 11.4621 12.5119 11.8906C12.087 12.319 11.8375 12.8908 11.8125 13.4937C11.8125 14.6281 12.5062 15.3688 13.9781 15.6781L15.0094 15.9219C16.0125 16.1563 16.425 16.4937 16.425 17.0656C16.425 17.6375 15.7031 18.2 14.7656 18.2C14.4326 18.2305 14.0978 18.1667 13.7993 18.0158C13.5009 17.865 13.251 17.6331 13.0781 17.3469C13.0269 17.2383 12.9461 17.1463 12.8449 17.0816C12.7437 17.0169 12.6263 16.9821 12.5063 16.9812H11.9531C11.9106 16.9891 11.87 17.0053 11.8338 17.029C11.7975 17.0526 11.7663 17.0831 11.7419 17.1188C11.7175 17.1546 11.7004 17.1948 11.6916 17.2371C11.6828 17.2795 11.6825 17.3231 11.6906 17.3656C11.8254 17.9155 12.1386 18.4052 12.5814 18.7581C13.0241 19.1109 13.5714 19.307 14.1375 19.3156V20.1031C14.1375 20.2784 14.2071 20.4465 14.3311 20.5705C14.455 20.6944 14.6231 20.7641 14.7984 20.7641C14.9737 20.7641 15.1418 20.6944 15.2658 20.5705C15.3897 20.4465 15.4594 20.2784 15.4594 20.1031V19.3062C16.0995 19.299 16.7115 19.0421 17.165 18.5903C17.6185 18.1386 17.8778 17.5276 17.8875 16.8875C17.8875 15.6969 17.2031 15.0125 15.5813 14.6656L14.6438 14.4594C13.7063 14.225 13.2656 13.9156 13.2656 13.3906C13.2656 12.8656 13.8281 12.2844 14.7656 12.2844C15.0609 12.2535 15.3587 12.3088 15.6233 12.4436C15.8878 12.5783 16.1076 12.7868 16.2563 13.0437C16.3165 13.1721 16.4119 13.2807 16.5314 13.357C16.6508 13.4334 16.7895 13.4743 16.9312 13.475H17.3719C17.4721 13.4505 17.5586 13.3877 17.613 13.3C17.6673 13.2124 17.6851 13.1069 17.6625 13.0063C17.5355 12.4985 17.2514 12.0439 16.8507 11.7072C16.45 11.3705 15.9533 11.1689 15.4312 11.1313V10.4844C15.4312 10.3091 15.3616 10.141 15.2377 10.017C15.1137 9.89307 14.9456 9.82344 14.7703 9.82344C14.595 9.82344 14.4269 9.89307 14.303 10.017C14.179 10.141 14.1094 10.3091 14.1094 10.4844V11.1781ZM6.50625 15.2656C6.50732 16.9926 7.05091 18.6755 8.06024 20.0768C9.06956 21.4781 10.4936 22.5269 12.1312 23.075H12.2625C12.3744 23.075 12.4817 23.0306 12.5608 22.9514C12.6399 22.8723 12.6844 22.765 12.6844 22.6531V22.4562C12.6847 22.2817 12.6332 22.1111 12.5364 21.9659C12.4396 21.8207 12.3018 21.7075 12.1406 21.6406C10.8653 21.1258 9.77282 20.2417 9.00355 19.1016C8.23427 17.9615 7.82326 16.6175 7.82326 15.2422C7.82326 13.8668 8.23427 12.5229 9.00355 11.3828C9.77282 10.2427 10.8653 9.35853 12.1406 8.84375C12.3011 8.77857 12.4385 8.66707 12.5353 8.52348C12.6322 8.37988 12.6841 8.2107 12.6844 8.0375V7.82187C12.685 7.75856 12.6703 7.69604 12.6416 7.63961C12.6129 7.58317 12.571 7.53449 12.5195 7.49769C12.468 7.46089 12.4084 7.43706 12.3457 7.42821C12.283 7.41937 12.2191 7.42577 12.1594 7.44687C10.515 7.99071 9.08371 9.03885 8.0689 10.4424C7.0541 11.846 6.50732 13.5336 6.50625 15.2656ZM23.025 15.2656C23.022 13.5403 22.4775 11.8594 21.4683 10.46C20.4591 9.06061 19.0361 8.01326 17.4 7.46562H17.2594C17.1425 7.46562 17.0304 7.51205 16.9478 7.59468C16.8652 7.67731 16.8188 7.78939 16.8188 7.90625V8.04688C16.8225 8.22769 16.8785 8.40355 16.98 8.55326C17.0815 8.70297 17.2241 8.82013 17.3906 8.89062C18.6631 9.40692 19.7526 10.2911 20.5196 11.4302C21.2867 12.5692 21.6964 13.9112 21.6964 15.2844C21.6964 16.6576 21.2867 17.9996 20.5196 19.1386C19.7526 20.2776 18.6631 21.1618 17.3906 21.6781C17.2273 21.7494 17.0876 21.8657 16.9879 22.0134C16.8883 22.1612 16.8329 22.3343 16.8281 22.5125V22.6719C16.8289 22.7414 16.8462 22.8097 16.8784 22.8713C16.9107 22.9328 16.957 22.9859 17.0137 23.0261C17.0704 23.0664 17.1358 23.0926 17.2046 23.1027C17.2733 23.1129 17.3435 23.1066 17.4094 23.0844C19.0468 22.5341 20.4699 21.4832 21.4776 20.0802C22.4852 18.6772 23.0265 16.993 23.025 15.2656Z" fill="white"/>
</svg>
